# xmcd CD database file
#
# Track frame offsets:
#	150
#	21206
#	46843
#	61543
#	81287
#	104236
#	124617
#
# Disc length: 1929 seconds
#
# Revision: 0
# Processed by: cddbd v1.5.1PL2 Copyright (c) Steve Scherf et al.
# Submitted via: CDex 1.50Beta7
#
DISCID=53078707
DTITLE=Relaxation for Women - HealingTides
DYEAR=2002
DGENRE=New Age
TTITLE0=Morning Bright
TTITLE1=Sunset
TTITLE2=Moss Covered Banks
TTITLE3=Cold, Haily, Windy Night
TTITLE4=Twilight
TTITLE5=High Noon
TTITLE6=The Warmth Of You
EXTD=YEAR: 2002
EXTT0=
EXTT1=
EXTT2=
EXTT3=
EXTT4=
EXTT5=
EXTT6=
PLAYORDER=
